<svg fill="none" height="44" viewBox="0 0 296 44" width="296" xmlns="http://www.w3.org/2000/svg"><g fill="#416edf"><path d="m23.8253 25.2344v-15.30712c0-.85396-.1281-1.38768-.3843-1.60117-.2562-.25618-.7899-.38428-1.6011-.38428h-5.5721v19.27797h5.5721c.8112 0 1.3449-.1281 1.6011-.3842.2562-.2562.3843-.7899.3843-1.6012zm-23.8253-21.07131h35.0335c3.3731 0 5.0596 1.68655 5.0596 5.05967v16.71614c0 3.3731-1.6865 5.0597-5.0596 5.0597h-18.7657v13.0014h-16.2678z"/><path d="m65.8691 38.2358v-19.5342c0-.8113-.1281-1.345-.3843-1.6012s-.7899-.3843-1.6012-.3843h-2.4337c-.8113 0-1.345.1281-1.6012.3843s-.3843.7899-.3843 1.6012v19.5342c0 .8539.1281 1.409.3843 1.6652.2562.2135.7899.3202 1.6012.3202h2.4337c.8113 0 1.345-.1067 1.6012-.3202.2562-.2562.3843-.8113.3843-1.6652zm-16.7162-25.2984h27.0277c3.3731 0 5.0597 1.6865 5.0597 5.0597v20.9432c0 3.3731-1.6866 5.0597-5.0597 5.0597h-27.0277c-3.3731 0-5.0596-1.6866-5.0596-5.0597v-20.9432c0-3.3732 1.6865-5.0597 5.0596-5.0597z"/><path d="m85.2402 1.15283h15.3708v42.84717h-15.3708zm39.1968 11.78457-9.031 15.3712 9.031 15.6914h-15.371l-8.455-15.6914 8.583-15.3712z"/><path d="m164.751 0-11.4 9.92722h-11.913l8.711-9.92722zm-20.943 26.195h7.365v-7.4934c0-.8113-.128-1.345-.384-1.6012-.213-.2562-.747-.3843-1.601-.3843h-3.395c-.811 0-1.345.1281-1.601.3843s-.384.7899-.384 1.6012zm-10.312-13.2576h27.476c3.374 0 5.06 1.6866 5.06 5.0597v11.9767h-22.224v8.262c0 .8539.128 1.409.384 1.6652.256.2135.79.3202 1.601.3202h3.395c.854 0 1.388-.1067 1.601-.3202.256-.2562.384-.8113.384-1.6652v-4.7395h14.859v5.444c0 3.3731-1.686 5.0597-5.06 5.0597h-27.476c-3.373 0-5.059-1.6866-5.059-5.0597v-20.9432c0-3.3731 1.686-5.0597 5.059-5.0597z"/><path d="m187.389 40.2212h1.793c1.622 0 2.434-.6191 2.434-1.8573v-19.7904c0-1.2382-.812-1.8574-2.434-1.8574h-1.793c-.812 0-1.345.1281-1.602.3843-.256.2562-.384.7899-.384 1.6012v19.5342c0 .8539.128 1.409.384 1.6652.257.2135.79.3202 1.602.3202zm4.227-39.06837h15.371v42.84717h-15.371v-1.6652c-.598 1.1101-1.836 1.6652-3.715 1.6652h-12.809c-3.373 0-5.06-1.6866-5.06-5.0597v-20.9432c0-3.3731 1.687-5.0597 5.06-5.0597h12.809c1.879 0 3.117.5551 3.715 1.6652z"/><path d="m226.358 26.195h7.365v-7.4934c0-.8113-.128-1.345-.384-1.6012-.213-.2562-.747-.3843-1.601-.3843h-3.395c-.811 0-1.345.1281-1.601.3843s-.384.7899-.384 1.6012zm-10.312-13.2576h27.476c3.374 0 5.06 1.6865 5.06 5.0597v11.9767h-22.224v8.262c0 .8539.128 1.409.384 1.6652.256.2135.79.3202 1.601.3202h3.395c.854 0 1.388-.1067 1.601-.3202.256-.2562.384-.8113.384-1.6652v-4.7395h14.859v5.444c0 3.3731-1.686 5.0597-5.06 5.0597h-27.476c-3.373 0-5.059-1.6866-5.059-5.0597v-20.9432c0-3.3732 1.686-5.0597 5.059-5.0597z"/><path d="m280.634 25.9388 14.411 18.0612h-18.189l-6.533-8.5823-7.622 8.5823h-9.094l12.425-13.9622-13.45-17.1004h17.869l5.7 7.7496 6.853-7.7496h9.351z"/></g></svg>